<?xml version="1.0" encoding="UTF-8"?>
<svg id="Capa_2" data-name="Capa 2" xmlns="http://www.w3.org/2000/svg" viewBox="0 0 253.42 253.42">
  <defs>
    <style>
      .cls-1 {
        fill: #ed9a07;
      }

      .cls-2 {
        fill: #fff;
      }
    </style>
  </defs>
  <g id="Capa_1-2" data-name="Capa 1">
    <circle class="cls-1" cx="126.71" cy="126.71" r="126.71"/>
    <g>
      <circle class="cls-2" cx="126.71" cy="126.71" r="23.74" transform="translate(-18.66 21.93) rotate(-9.22)"/>
      <path class="cls-2" d="M194.52,121.1h-9.24c-2.64-27.86-24.7-50.07-52.5-52.92v-8.5c0-3.09-2.53-5.61-5.61-5.61s-5.61,2.53-5.61,5.61v8.43c-28.22,2.45-50.74,24.82-53.4,52.99h-9.24c-3.09,0-5.61,2.53-5.61,5.61s2.53,5.61,5.61,5.61h9.24c2.65,28.01,24.94,50.3,52.95,52.95v8.47c0,3.09,2.53,5.61,5.61,5.61h0c3.09,0,5.61-2.53,5.61-5.61v-8.47c28.01-2.65,50.3-24.94,52.95-52.95h9.24c3.09,0,5.61-2.53,5.61-5.61s-2.53-5.61-5.61-5.61ZM132.32,172.19v-6.32c0-3.09-2.53-5.61-5.61-5.61h0c-3.09,0-5.61,2.53-5.61,5.61v6.32c-20.79-2.55-37.32-19.08-39.87-39.87h5.55c3.09,0,5.61-2.53,5.61-5.61s-2.53-5.61-5.61-5.61h-5.55c2.57-20.95,19.31-37.56,40.32-39.93v6.38c0,3.09,2.53,5.61,5.61,5.61s5.61-2.53,5.61-5.61v-6.26c20.58,2.73,36.88,19.17,39.42,39.81h-5.55c-3.09,0-5.61,2.53-5.61,5.61s2.53,5.61,5.61,5.61h5.55c-2.55,20.79-19.08,37.32-39.87,39.87Z"/>
    </g>
  </g>
</svg>